<svg width="351" height="84" viewBox="0 0 351 84" fill="none" xmlns="http://www.w3.org/2000/svg">
<path d="M136.6 45.65C136.6 49.85 135.883 52.8167 134.45 54.55C132.883 56.4833 130.05 57.45 125.95 57.45C121.883 57.45 119.05 56.4667 117.45 54.5C116.05 52.7667 115.35 49.8167 115.35 45.65V33.25C115.35 29.05 116.05 26.1 117.45 24.4C119.017 22.4667 121.85 21.5 125.95 21.5C130.683 21.5 133.75 22.7833 135.15 25.35C136.117 27.1167 136.6 30.5833 136.6 35.75H128.9V31.4C128.9 30.2 128.733 29.3667 128.4 28.9C127.967 28.3667 127.15 28.1 125.95 28.1C124.817 28.1 124.033 28.3333 123.6 28.8C123.167 29.2333 122.95 30.0167 122.95 31.15V47.75C122.95 48.8833 123.167 49.6833 123.6 50.15C124.033 50.6167 124.817 50.85 125.95 50.85C127.217 50.85 128.05 50.5667 128.45 50C128.75 49.5333 128.9 48.6833 128.9 47.45V41.45H136.6V45.65ZM155.787 32.25H150.837V57H143.937V32.25H138.987V26.4H155.787V32.25ZM178.213 47.1C178.213 50.6667 177.946 53.0667 177.413 54.3C176.513 56.4 174.546 57.45 171.513 57.45C170.28 57.45 169.196 57.15 168.263 56.55C167.63 56.1167 166.813 55.3333 165.813 54.2V61.5H158.863V26.4H165.313V29.35C166.58 28.15 167.563 27.3333 168.263 26.9C169.33 26.3 170.563 26 171.963 26C174.53 26 176.28 27 177.213 29C177.88 30.3667 178.213 32.5 178.213 35.4V47.1ZM171.113 48.7V34.75C171.113 33.65 170.963 32.8833 170.663 32.45C170.296 31.85 169.563 31.55 168.463 31.55C167.363 31.55 166.646 31.8 166.313 32.3C165.98 32.7667 165.813 33.5833 165.813 34.75V48.7C165.813 49.8667 165.963 50.6667 166.263 51.1C166.63 51.6333 167.363 51.9 168.463 51.9C169.563 51.9 170.313 51.6167 170.713 51.05C170.98 50.6167 171.113 49.8333 171.113 48.7ZM201.785 47.65C201.785 51.2833 201.068 53.8333 199.635 55.3C198.235 56.7333 195.718 57.45 192.085 57.45C188.418 57.45 185.868 56.7333 184.435 55.3C183.035 53.8667 182.335 51.3167 182.335 47.65V35.8C182.335 32.1667 183.052 29.6333 184.485 28.2C185.918 26.7333 188.452 26 192.085 26C195.718 26 198.235 26.7333 199.635 28.2C201.068 29.6333 201.785 32.1667 201.785 35.8V47.65ZM194.735 48.4V35.05C194.735 33.95 194.585 33.1833 194.285 32.75C193.885 32.15 193.152 31.85 192.085 31.85C190.985 31.85 190.235 32.1333 189.835 32.7C189.535 33.1333 189.385 33.9167 189.385 35.05V48.4C189.385 49.5333 189.535 50.3167 189.835 50.75C190.202 51.3167 190.952 51.6 192.085 51.6C193.185 51.6 193.935 51.3167 194.335 50.75C194.602 50.3167 194.735 49.5333 194.735 48.4ZM225.42 57H218.52V47.35C216.787 51.6833 214.687 54.9 212.22 57H205.92V26.4H212.82V47.7C215.654 45.5 217.454 41.2333 218.22 34.9C218.42 33.1 218.52 30.2667 218.52 26.4H225.42V57ZM244.605 32.25H239.655V57H232.755V32.25H227.805V26.4H244.605V32.25ZM263.798 47.65C263.798 51.3167 263.081 53.8667 261.648 55.3C260.248 56.7333 257.731 57.45 254.098 57.45C250.431 57.45 247.881 56.7333 246.448 55.3C245.048 53.8667 244.348 51.3167 244.348 47.65V35.8C244.348 32.1667 245.065 29.6333 246.498 28.2C247.931 26.7333 250.465 26 254.098 26C257.731 26 260.248 26.7167 261.648 28.15C263.081 29.5833 263.798 32.1333 263.798 35.8V42.7H251.298V48.7C251.298 49.8333 251.465 50.65 251.798 51.15C252.165 51.65 252.931 51.9 254.098 51.9C255.198 51.9 255.948 51.6167 256.348 51.05C256.681 50.6167 256.848 49.8333 256.848 48.7V45.8H263.798V47.65ZM256.848 37.3V34.95C256.848 33.7833 256.698 32.9667 256.398 32.5C255.998 31.8667 255.231 31.55 254.098 31.55C252.931 31.55 252.148 31.8667 251.748 32.5C251.448 32.9333 251.298 33.75 251.298 34.95V37.3H256.848ZM286.981 57H280.081V31.9C279.114 32.9 278.298 33.9333 277.631 35C276.264 37.2667 275.398 40.85 275.031 45.75C274.931 47.3833 274.881 51.1333 274.881 57H267.981V52.4C267.981 46.2667 268.481 41.45 269.481 37.95C270.948 32.9167 273.664 29.0667 277.631 26.4H286.981V57ZM311.76 47.2C311.76 50.6667 311.093 53.1333 309.76 54.6C308.327 56.2 305.91 57 302.51 57H292.36V26.4H299.26V37.55C300.593 37.2833 301.743 37.15 302.71 37.15C305.943 37.15 308.293 38.0333 309.76 39.8C311.093 41.4 311.76 43.8667 311.76 47.2ZM304.86 47.2C304.86 45.7 304.727 44.65 304.46 44.05C304.027 43.15 303.16 42.7 301.86 42.7C301.027 42.7 300.16 42.7833 299.26 42.95V51.3H300.96C302.427 51.3 303.443 51 304.01 50.4C304.577 49.7667 304.86 48.7 304.86 47.2Z" fill="white"/>
<path d="M60.4819 8H84.9819L46.9819 71L33.9819 51L60.4819 8Z" fill="white"/>
<path d="M101 31L87.9819 11L50.9819 75" stroke="#9D9070" stroke-width="3"/>
<path d="M32.5508 47.5L18.4819 19L50.4819 19L32.5508 47.5Z" fill="#9D9070"/>
<path d="M18.482 19.0001L21 20L12 39.8528L9.00002 39.8528L18.482 19.0001Z" fill="#9D9070"/>
<rect x="86" y="25" width="2.22222" height="2.22222" fill="#D9D9D9"/>
<rect x="86" y="27.7773" width="2.22222" height="2.22222" fill="#D9D9D9"/>
<rect x="88.7778" y="27.7773" width="2.22222" height="2.22222" fill="#D9D9D9"/>
<rect x="88.7778" y="25" width="2.22222" height="2.22222" fill="#D9D9D9"/>
<rect x="18" y="31" width="2.22222" height="2.22222" fill="#D9D9D9"/>
<rect x="18" y="33.7773" width="2.22222" height="2.22222" fill="#D9D9D9"/>
<rect x="20.7778" y="33.7773" width="2.22222" height="2.22222" fill="#D9D9D9"/>
<rect x="20.7778" y="31" width="2.22222" height="2.22222" fill="#D9D9D9"/>
</svg>
