<svg width="70" height="70" viewBox="0 0 70 70" fill="none" xmlns="http://www.w3.org/2000/svg">
<g clip-path="url(#clip0_916_22)">
<path d="M69.3587 66.243L50.0112 46.7765C54.1543 41.8273 56.6482 35.4452 56.6482 28.4758C56.6482 12.7488 43.9672 0 28.2412 0C12.5152 0 -0.233398 12.7488 -0.233398 28.4747C-0.233398 44.2006 12.5154 56.9494 28.2412 56.9494C35.4195 56.9494 41.959 54.2861 46.9509 49.9034L66.2643 69.3383C67.1186 70.1925 68.5044 70.1925 69.3575 69.3383C70.2129 68.483 70.2129 67.0983 69.3586 66.243L69.3587 66.243ZM28.2043 52.5001C14.9732 52.5001 4.14181 41.6687 4.14181 28.4376C4.14181 15.2065 14.9732 4.37514 28.2043 4.37514C41.4354 4.37514 52.2668 15.2065 52.2668 28.4376C52.2668 41.6687 41.4354 52.5001 28.2043 52.5001ZM39.1418 26.2501H30.3918V17.5001C30.3918 16.2926 29.4118 15.3126 28.2043 15.3126C26.9968 15.3126 26.0168 16.2926 26.0168 17.5001V26.2501H17.2668C16.0593 26.2501 15.0793 27.2301 15.0793 28.4376C15.0793 29.6451 16.0593 30.6251 17.2668 30.6251H26.0168V39.3751C26.0168 40.5826 26.9968 41.5626 28.2043 41.5626C29.4118 41.5626 30.3918 40.5826 30.3918 39.3751V30.6251H39.1418C40.3493 30.6251 41.3293 29.6451 41.3293 28.4376C41.3293 27.2301 40.3504 26.2501 39.1418 26.2501Z" fill="#FAFAFA"/>
</g>
<defs>
<clipPath id="clip0_916_22">
<rect width="70" height="70" fill="white"/>
</clipPath>
</defs>
</svg>
