<svg width="30" height="31" viewBox="0 0 30 31" fill="none" xmlns="http://www.w3.org/2000/svg">
<path d="M24.9375 27.0298C25.1458 27.0298 25.3646 27.0248 25.5937 27.0148C25.8229 27.004 26.0417 26.9881 26.25 26.9673V19.6548L20 18.4048L16.375 22.0298C14.7917 21.0715 13.3383 19.936 12.015 18.6235C10.6925 17.311 9.59375 15.9048 8.71875 14.4048L12.2812 10.811L11.125 4.52979H3.8125C3.77083 4.73812 3.75 4.95687 3.75 5.18604V5.84229C3.75 8.52979 4.34917 11.1494 5.5475 13.701C6.745 16.2535 8.32833 18.5194 10.2975 20.4985C12.2658 22.4777 14.5258 24.061 17.0775 25.2485C19.63 26.436 22.25 27.0298 24.9375 27.0298Z" fill="#FEFEFE"/>
</svg>
