<svg width="80" height="80" viewBox="0 0 80 80" fill="none" xmlns="http://www.w3.org/2000/svg">
    <path d="M73.0938 8.96848C72.2286 8.22814 71.1793 7.73561 70.057 7.54305C68.9347 7.3505 67.7813 7.46511 66.7188 7.87473L9.03131 30.5622C7.77062 31.0422 6.70248 31.9229 5.99109 33.0691C5.2797 34.2152 4.96445 35.5632 5.09381 36.906C5.20953 38.2539 5.7595 39.5279 6.6611 40.5366C7.5627 41.5452 8.76725 42.2341 10.0938 42.4997L23.7501 45.2185V62.4997C23.7433 63.7363 24.1054 64.9469 24.7901 65.9767C25.4748 67.0064 26.4509 67.8087 27.5938 68.281C28.3587 68.5892 29.1754 68.7483 30.0001 68.7497C30.8206 68.7532 31.6334 68.5918 32.3903 68.2751C33.1472 67.9583 33.8328 67.4928 34.4063 66.906L41.6876 59.6247L53.1251 69.6872C54.2518 70.6925 55.7088 71.2486 57.2188 71.2497C57.8776 71.2555 58.5327 71.1499 59.1563 70.9372C60.1882 70.6115 61.1172 70.0222 61.8516 69.2275C62.586 68.4329 63.1004 67.4603 63.3438 66.406L75.0938 15.0935C75.3481 13.9872 75.2963 12.8325 74.9439 11.7534C74.5916 10.6743 73.952 9.71155 73.0938 8.96848ZM46.2188 23.9997L26.6251 38.156L15.7501 35.9685L46.2188 23.9997ZM31.2501 59.4685V50.4372L36.0626 54.656L31.2501 59.4685ZM56.5001 62.6872L33.5001 42.4372L66.6251 18.531L56.5001 62.6872Z" fill="white"/>
</svg>
