<svg width="80" height="80" viewBox="0 0 80 80" fill="none" xmlns="http://www.w3.org/2000/svg">
<path d="M38.0001 0C31.5768 0.0933333 17.7768 1.14667 10.0668 8.22333C4.34015 13.9567 2.32015 22.3333 2.11015 32.7233C1.90015 43.11 1.62681 62.5867 20.4001 67.8667H20.4101L20.3968 75.92C20.3968 75.92 20.2735 79.1767 22.4301 79.8433C25.0201 80.65 26.5435 78.1767 29.0301 75.5033C30.3868 74.0367 32.2701 71.89 33.6868 70.2367C46.5201 71.3233 56.3935 68.85 57.5202 68.4867C60.1068 67.6467 74.7735 65.7667 77.1602 46.2967C79.6268 26.23 75.9602 13.53 69.3602 7.81C67.3735 5.97667 59.3401 0.143333 41.4435 0.0666667C41.4435 0.0666667 40.1268 -0.0166667 37.9868 0.01L38.0001 0ZM38.1935 5.64333C40.0101 5.63 41.1268 5.7 41.1268 5.7C56.2668 5.76667 63.5168 10.3267 65.2001 11.8533C70.7835 16.6367 73.6335 28.08 71.5535 44.8433V44.85C69.5401 61.11 57.6402 62.13 55.4468 62.8333C54.5135 63.1333 45.8401 65.29 34.9368 64.58C34.9368 64.58 26.8168 74.38 24.2801 76.9267C23.8801 77.3267 23.4135 77.4833 23.1068 77.4067C22.6735 77.2967 22.5535 76.78 22.5568 76.0267L22.6235 62.6333C6.75015 58.2333 7.67348 41.66 7.85681 32.9833C8.03681 24.3033 9.66682 17.19 14.5101 12.4067C21.0435 6.49667 32.7568 5.68 38.2101 5.64L38.1935 5.64333ZM39.4601 14.3167C39.2017 14.3297 38.9581 14.4411 38.7791 14.628C38.6002 14.815 38.4996 15.0633 38.4979 15.322C38.4962 15.5808 38.5935 15.8304 38.77 16.0197C38.9464 16.209 39.1886 16.3236 39.4468 16.34C44.8601 16.3733 49.2668 18.13 52.8735 21.6467C56.4501 25.1333 58.2735 29.8733 58.3168 36.0933C58.3235 36.65 58.7835 37.0933 59.3401 37.0933C59.6066 37.0898 59.8609 36.9815 60.0481 36.7919C60.2352 36.6022 60.3402 36.3465 60.3401 36.08C60.2935 29.4667 58.2801 24.0933 54.2868 20.2C50.3201 16.3333 45.3101 14.3567 39.4601 14.3167ZM26.2601 16.6333C25.5515 16.5352 24.8302 16.6722 24.2068 17.0233L24.1735 17.03C22.7401 17.8533 21.4535 18.9033 20.3535 20.1367C20.3468 20.15 20.3335 20.15 20.3268 20.1633C19.4368 21.24 18.9268 22.29 18.7935 23.3233C18.7674 23.4774 18.7595 23.6341 18.7701 23.79C18.7701 24.2433 18.8435 24.69 18.9868 25.1233L19.0301 25.1567C19.4801 26.7567 20.6068 29.41 23.0468 33.8367C24.4468 36.3967 26.0568 38.8367 27.8668 41.1233C28.7668 42.27 29.7335 43.3667 30.7668 44.4033L31.2068 44.8433C32.2401 45.87 33.3401 46.8433 34.4868 47.7433C36.7754 49.5537 39.2129 51.1672 41.7735 52.5667C46.2001 55.01 48.8601 56.1333 50.4535 56.5867L50.4868 56.6333C51.0667 56.8229 51.6806 56.8855 52.2868 56.8167C53.3201 56.6967 54.3768 56.1833 55.4468 55.2833C55.4602 55.2833 55.4568 55.2767 55.4735 55.2667C56.7068 54.1667 57.7502 52.8667 58.5735 51.44L58.5835 51.4067C59.3335 49.9667 59.0835 48.6 57.9835 47.6733C57.9702 47.6733 55.6568 45.74 54.5268 44.9067C53.3268 44.0567 52.0935 43.2667 50.8168 42.54C49.1168 41.59 47.3768 42.1867 46.6568 43.12L45.1668 45C44.4001 45.9433 42.9768 45.82 42.9768 45.82C32.5768 43.1667 29.7935 32.6367 29.7935 32.6367C29.7935 32.6367 29.6701 31.2167 30.6201 30.45L32.4968 28.9567C33.4201 28.24 34.0168 26.5 33.0635 24.7967C32.3395 23.5176 31.5495 22.2771 30.6968 21.08C29.8016 19.9086 28.8792 18.7583 27.9301 17.63C27.5121 17.1065 26.9169 16.7544 26.2568 16.64L26.2601 16.6333ZM41.2268 19.5667C40.9589 19.5587 40.6989 19.6575 40.5038 19.8413C40.3088 20.0251 40.1948 20.2788 40.1868 20.5467C40.1789 20.8145 40.2776 21.0746 40.4614 21.2696C40.6452 21.4647 40.8989 21.5787 41.1668 21.5867C45.0335 21.87 47.8901 23.14 49.9835 25.42C52.0835 27.7133 53.0835 30.5 53.0035 33.9867C53.018 34.243 53.1287 34.4844 53.3135 34.6628C53.4982 34.8411 53.7434 34.9432 54.0001 34.9486C54.2568 34.9541 54.5061 34.8626 54.6983 34.6923C54.8905 34.522 55.0114 34.2855 55.0368 34.03C55.1201 30.1133 53.9235 26.72 51.4801 24.05C49.0135 21.35 45.5568 19.8733 41.3135 19.5633H41.2335L41.2268 19.5667ZM42.7701 25C42.5135 25.0038 42.2677 25.1045 42.0822 25.2819C41.8968 25.4594 41.7853 25.7004 41.7701 25.9567C41.7435 26.5133 42.1701 26.99 42.7301 27.0233C44.4735 27.1167 45.6468 27.6067 46.4401 28.43C47.2401 29.2467 47.7335 30.4967 47.8268 32.31C47.8611 32.5613 47.9885 32.7906 48.1836 32.9526C48.3788 33.1146 48.6277 33.1975 48.881 33.185C49.1344 33.1724 49.3738 33.0653 49.552 32.8848C49.7302 32.7043 49.8342 32.4635 49.8435 32.21C49.7435 30.0633 49.1268 28.2833 47.9101 27.02C46.6868 25.76 44.9335 25.1067 42.8435 24.9967H42.7835L42.7701 25Z" fill="#FCFCFC"/>
</svg>
