<svg width="80" height="80" viewBox="0 0 80 80" fill="none" xmlns="http://www.w3.org/2000/svg">
    <g clip-path="url(#clip0_744_16)">
    <path d="M58.32 47.9425C57.3175 47.435 52.435 45.0525 51.5225 44.7125C50.61 44.3875 49.9475 44.2175 49.2825 45.22C48.6325 46.1975 46.7175 48.435 46.1325 49.0875C45.5475 49.74 44.9725 49.79 43.985 49.3475C42.9825 48.84 39.78 47.7975 35.9775 44.3875C33.0075 41.745 31.03 38.49 30.4425 37.4875C29.8575 36.4975 30.3775 35.9375 30.8725 35.4425C31.3275 34.9875 31.875 34.2975 32.3825 33.6975C32.865 33.0975 33.02 32.695 33.3725 32.045C33.6975 31.3425 33.53 30.795 33.2825 30.3C33.035 29.805 31.0425 24.8975 30.21 22.9425C29.415 21.0025 28.5825 21.25 27.97 21.25C27.3975 21.1975 26.7325 21.1975 26.07 21.1975C25.4075 21.1975 24.325 21.445 23.4125 22.395C22.5 23.3975 19.9225 25.7925 19.9225 30.6375C19.9225 35.495 23.49 40.195 23.985 40.8975C24.4925 41.5475 31.0025 51.5475 40.99 55.845C43.3725 56.8475 45.2225 57.4475 46.6675 57.9425C49.05 58.6975 51.225 58.5925 52.9425 58.345C54.8425 58.0325 58.8275 55.935 59.6625 53.5925C60.51 51.235 60.51 49.2825 60.2625 48.84C60.015 48.385 59.365 48.1375 58.3625 47.695L58.32 47.9425ZM40.2075 72.5H40.155C34.2425 72.5 28.3975 70.8975 23.2925 67.9025L22.095 67.1875L9.595 70.4425L12.955 58.28L12.1475 57.03C8.84616 51.7809 7.09475 45.706 7.095 39.505C7.095 21.355 21.9525 6.55 40.2325 6.55C49.0875 6.55 57.395 10 63.645 16.25C66.7282 19.2965 69.1738 22.9265 70.8392 26.9281C72.5046 30.9298 73.3564 35.2231 73.345 39.5575C73.32 57.695 58.475 72.5 40.22 72.5H40.2075ZM68.3975 11.4975C60.7925 4.1525 50.7925 0 40.155 0C18.215 0 0.35 17.7875 0.3375 39.6475C0.3375 46.6275 2.16 53.4375 5.65 59.465L0 80L21.12 74.4925C26.9708 77.6469 33.5106 79.3061 40.1575 79.3225H40.17C62.1225 79.3225 79.9875 61.535 80 39.66C80 29.075 75.8725 19.1125 68.3475 11.625L68.3975 11.4975Z" fill="white"/>
    </g>
    <defs>
    <clipPath id="clip0_744_16">
    <rect width="80" height="80" fill="white"/>
    </clipPath>
    </defs>
</svg>
